<svg width="102" height="52" viewBox="0 0 102 52" fill="none" xmlns="http://www.w3.org/2000/svg">
<path d="M92.3906 24.0312H87.9375V20.5625H92.3906V14.8281H97.0156V20.5625H101.469V24.0312H97.0156V39H92.3906V24.0312Z" fill="white"/>
<path d="M75.5937 24.0312H72.4375V20.5625H75.5937C75.5937 19.3125 75.7708 18.2031 76.125 17.2344C76.4792 16.2552 76.9896 15.4323 77.6562 14.7656C78.3333 14.0885 79.151 13.5729 80.1094 13.2188C81.0781 12.8646 82.1667 12.6875 83.375 12.6875C84.2187 12.6875 85.0469 12.7708 85.8594 12.9375C86.6719 13.0938 87.3906 13.3229 88.0156 13.625L86.375 17.5156C86.125 17.3698 85.7708 17.2344 85.3125 17.1094C84.8646 16.9844 84.3698 16.9219 83.8281 16.9219C82.7656 16.9219 81.9062 17.224 81.25 17.8281C80.6042 18.4219 80.2604 19.3333 80.2187 20.5625H86.0469V24.0312H80.2187V39H75.5937V24.0312Z" fill="white"/>
<path d="M65.3281 18.0469C64.8698 18.0469 64.4531 17.9844 64.0781 17.8594C63.7135 17.724 63.401 17.5469 63.1406 17.3281C62.8802 17.099 62.6771 16.8385 62.5312 16.5469C62.3958 16.2448 62.3281 15.9271 62.3281 15.5938C62.3281 15.25 62.3958 14.9323 62.5312 14.6406C62.6771 14.3385 62.8802 14.0781 63.1406 13.8594C63.401 13.6406 63.7135 13.4688 64.0781 13.3438C64.4531 13.2083 64.8698 13.1406 65.3281 13.1406C65.7969 13.1406 66.2135 13.2083 66.5781 13.3438C66.9531 13.4688 67.2708 13.6406 67.5312 13.8594C67.7917 14.0781 64.3646 15.2917 64.5 15.5938C64.6458 15.8854 68.3437 15.25 68.3437 15.5938C68.3437 15.9271 68.2708 16.2448 68.125 16.5469C67.9896 16.8385 67.7917 17.099 67.5312 17.3281C67.2708 17.5469 66.9531 17.724 66.5781 17.8594C66.2135 17.9844 65.7969 18.0469 65.3281 18.0469ZM63.0156 20.5625H67.6406V39H63.0156V20.5625Z" fill="white"/>
<path d="M46.8281 20.5625H51.4531V23.2188C52.4739 22.4583 53.5521 21.8021 54.6875 21.25C55.8229 20.6979 56.9531 20.276 58.0781 19.9844L59.4375 24.2188C57.6562 24.3958 56.0885 24.7969 54.7344 25.4219C53.3906 26.0365 52.2969 26.9062 51.4531 28.0312V39H46.8281V20.5625Z" fill="white"/>
<path d="M18.6562 29.8594C18.6562 28.3906 18.9323 27.0677 19.4844 25.8906C20.0365 24.7031 20.7969 23.6927 21.7656 22.8594C22.7448 22.0156 23.901 21.3698 25.2344 20.9219C26.5781 20.4635 28.0312 20.2344 29.5937 20.2344C30.2604 20.2344 30.9167 20.276 31.5625 20.3594C32.2187 20.4427 32.8437 20.5573 33.4375 20.7031C34.0417 20.849 34.6042 21.026 35.125 21.2344C35.6562 21.4323 36.125 21.651 36.5312 21.8906V13.0781H41.1562V39H36.5312V37.2656C36.125 37.5469 35.6458 37.8125 35.0937 38.0625C34.5417 38.3125 33.9479 38.5312 33.3125 38.7188C32.6771 38.9062 32.0156 39.0521 31.3281 39.1562C30.651 39.2708 29.9792 39.3281 29.3125 39.3281C27.75 39.3281 26.3125 39.099 25 38.6406C23.6979 38.1823 22.5781 37.5365 21.6406 36.7031C20.7031 35.8698 19.9687 34.875 19.4375 33.7188C18.9167 32.5521 18.6562 31.2656 18.6562 29.8594ZM23.5156 29.8594C23.5156 30.599 23.6615 31.2969 23.9531 31.9531C24.2552 32.6094 24.6823 33.1875 25.2344 33.6875C25.7969 34.1771 26.4687 34.5677 27.25 34.8594C28.0417 35.1406 28.9271 35.2812 29.9062 35.2812C30.5312 35.2812 31.1562 35.224 31.7812 35.1094C32.4062 34.9844 33.0052 34.8125 33.5781 34.5938C34.1614 34.375 34.7031 34.1094 35.2031 33.7969C35.7135 33.4844 36.1562 33.1354 36.5312 32.75V26.3594C36.0625 25.9844 35.5677 25.6667 35.0469 25.4062C34.526 25.1458 33.9948 24.9323 33.4531 24.7656C32.9114 24.599 32.3646 24.4792 31.8125 24.4062C31.2604 24.3229 30.7239 24.2812 30.2031 24.2812C29.1406 24.2812 28.1927 24.4271 27.3594 24.7188C26.5365 25 25.8385 25.3906 25.2656 25.8906C24.7031 26.3906 24.2708 26.9792 23.9687 27.6562C23.6667 28.3333 23.5156 29.0677 23.5156 29.8594Z" fill="white"/>
<path fill-rule="evenodd" clip-rule="evenodd" d="M9.12634 0C9.60986 0.000210732 10.0238 0.346421 10.1097 0.822266L16.7875 37.8223C16.8982 38.4357 16.4264 38.9999 15.8031 39H14.7377C14.253 38.9998 13.838 38.6521 13.7533 38.1748L13.0004 37C12.9156 36.5227 12.3826 37 11.8978 37H5.07946C4.59248 37 4.08279 36.5201 4.00036 37L3.25231 38.1689C3.16995 38.6488 2.75376 38.9998 2.26696 39H1.19079C0.569482 39 0.0982065 38.4391 0.205437 37.8271L6.68884 0.827148C6.77277 0.349008 7.18776 0.00015411 7.67321 0H9.12634ZM8.38024 5.5C6.68445 8.70633 6.70505 11.6588 6.8568 14.3574L5.00036 19L6.79137 17.6553L5.68981 24.0264C4.73269 24.1755 4.00036 25.001 4.00036 26C4.00036 27.1046 4.89579 28 6.00036 28C6.08785 28 6.17365 27.9914 6.25817 27.9805C6.60123 28.5886 7.25236 29 8.00036 29C8.87283 28.9998 9.61298 28.4404 9.8861 27.6611C10.2045 27.875 10.588 28 11.0004 28C12.1047 27.9998 13.0004 27.1044 13.0004 26C13.0004 24.9742 12.2276 24.1301 11.2328 24.0146L10.0863 17.5645L12.0004 19L10.1371 14.3438C10.2739 11.6488 10.2438 8.70088 8.38024 5.5Z" fill="white"/>
<path d="M48.665 42.4521C48.5218 42.4521 48.3916 42.4326 48.2744 42.3936C48.1605 42.3512 48.0628 42.2959 47.9814 42.2275C47.9001 42.1559 47.8366 42.0745 47.791 41.9834C47.7487 41.889 47.7275 41.7897 47.7275 41.6855C47.7275 41.5781 47.7487 41.4788 47.791 41.3877C47.8366 41.2933 47.9001 41.2119 47.9814 41.1436C48.0628 41.0752 48.1605 41.0215 48.2744 40.9824C48.3916 40.9401 48.5218 40.9189 48.665 40.9189C48.8115 40.9189 48.9417 40.9401 49.0557 40.9824C49.1728 41.0215 49.2721 41.0752 49.3535 41.1436C49.4349 41.2119 49.4967 41.2933 49.5391 41.3877C49.5846 41.4788 49.6074 41.5781 49.6074 41.6855C49.6074 41.7897 49.5846 41.889 49.5391 41.9834C49.4967 42.0745 49.4349 42.1559 49.3535 42.2275C49.2721 42.2959 49.1728 42.3512 49.0557 42.3936C48.9417 42.4326 48.8115 42.4521 48.665 42.4521ZM47.9424 43.2383H49.3877V49H47.9424V43.2383Z" fill="white"/>
<path d="M51.2432 43.2383H52.6885V43.7266C53.0726 43.5085 53.4388 43.3555 53.7871 43.2676C54.1387 43.1797 54.4821 43.1357 54.8174 43.1357C55.2568 43.1357 55.6637 43.2008 56.0381 43.3311C56.4124 43.458 56.7363 43.6484 57.0098 43.9023C57.2832 44.1562 57.4964 44.4736 57.6494 44.8545C57.8057 45.2321 57.8838 45.6699 57.8838 46.168V49H56.4434V46.4023C56.4434 46.0866 56.3978 45.805 56.3066 45.5576C56.2187 45.307 56.0902 45.097 55.9209 44.9277C55.7549 44.7552 55.5514 44.625 55.3105 44.5371C55.0729 44.446 54.806 44.4004 54.5098 44.4004C54.3535 44.4004 54.1924 44.4167 54.0264 44.4492C53.8636 44.4818 53.7025 44.529 53.543 44.5908C53.3867 44.6494 53.2353 44.7243 53.0889 44.8154C52.9424 44.9033 52.8089 45.0042 52.6885 45.1182V49H51.2432V43.2383Z" fill="white"/>
<path d="M63.2109 47.2324C63.6016 47.4668 64.0312 47.6393 64.5 47.75C64.9687 47.8607 65.4489 47.916 65.9404 47.916C66.2725 47.916 66.5491 47.8932 66.7705 47.8477C66.9919 47.8021 67.1693 47.7435 67.3027 47.6719C67.4362 47.6003 67.5306 47.5189 67.5859 47.4277C67.6413 47.3366 67.6689 47.2438 67.6689 47.1494C67.6689 47.0127 67.6087 46.8955 67.4883 46.7979C67.3711 46.7002 67.1758 46.6514 66.9023 46.6514C66.7754 46.6514 66.6387 46.6595 66.4922 46.6758C66.3457 46.6921 66.1911 46.71 66.0283 46.7295C65.8688 46.7458 65.7012 46.762 65.5254 46.7783C65.3529 46.7946 65.1771 46.8027 64.998 46.8027C64.6074 46.8027 64.2738 46.7604 63.9971 46.6758C63.7236 46.5911 63.5006 46.4756 63.3281 46.3291C63.1556 46.1826 63.0303 46.0101 62.9521 45.8115C62.874 45.6097 62.835 45.3932 62.835 45.1621C62.835 44.8691 62.9033 44.599 63.04 44.3516C63.1768 44.1042 63.3721 43.8909 63.626 43.7119C63.8799 43.5296 64.1859 43.388 64.5439 43.2871C64.9053 43.1862 65.3073 43.1357 65.75 43.1357C65.9811 43.1357 66.222 43.1504 66.4726 43.1797C66.7266 43.2057 66.9756 43.2415 67.2197 43.2871C67.4639 43.3327 67.6982 43.3864 67.9228 43.4482C68.1475 43.5068 68.346 43.5703 68.5185 43.6387L68.0644 44.7617C67.6966 44.625 67.3288 44.5176 66.9609 44.4395C66.5963 44.3581 66.2204 44.3174 65.833 44.3174C65.5628 44.3174 65.3333 44.3385 65.1445 44.3809C64.959 44.4199 64.8076 44.4736 64.6904 44.542C64.5732 44.6071 64.487 44.6836 64.4316 44.7715C64.3795 44.8561 64.3535 44.9456 64.3535 45.04C64.3535 45.1084 64.3665 45.1702 64.3926 45.2256C64.4219 45.2809 64.4674 45.3298 64.5293 45.3721C64.5944 45.4111 64.6774 45.4421 64.7783 45.4648C64.8825 45.4844 65.0094 45.4941 65.1592 45.4941C65.2959 45.4941 65.4408 45.486 65.5937 45.4697C65.7467 45.4534 65.9062 45.4372 66.0723 45.4209C66.2383 45.4014 66.4092 45.3835 66.585 45.3672C66.764 45.3509 66.9463 45.3428 67.1318 45.3428C67.4769 45.3428 67.778 45.3835 68.0351 45.4648C68.2956 45.5462 68.5104 45.6602 68.6797 45.8066C68.849 45.9531 68.9759 46.1257 69.0605 46.3242C69.1452 46.5228 69.1875 46.7393 69.1875 46.9736C69.1875 47.2764 69.1175 47.5579 68.9775 47.8184C68.8376 48.0788 68.6292 48.305 68.3525 48.4971C68.0758 48.6859 67.7308 48.834 67.3174 48.9414C66.9072 49.0488 66.432 49.1025 65.8916 49.1025C65.5596 49.1025 65.2389 49.0814 64.9297 49.0391C64.6204 49 64.3258 48.9463 64.0459 48.8779C63.7659 48.8063 63.5023 48.7233 63.2549 48.6289C63.0107 48.5345 62.7878 48.4336 62.5859 48.3262L63.2109 47.2324Z" fill="white"/>
<path d="M71.8975 51.3535H70.4521V43.2383H71.8975V43.7803C72.0244 43.6924 72.1741 43.6094 72.3467 43.5312C72.5192 43.4531 72.7047 43.3848 72.9033 43.3262C73.1019 43.2676 73.307 43.222 73.5185 43.1895C73.7301 43.1536 73.9417 43.1357 74.1533 43.1357C74.6416 43.1357 75.0892 43.2074 75.4961 43.3506C75.9062 43.4938 76.2578 43.6956 76.5508 43.9561C76.8437 44.2165 77.0716 44.529 77.2344 44.8936C77.4004 45.2549 77.4834 45.6553 77.4834 46.0947C77.4834 46.5537 77.3971 46.9688 77.2246 47.3398C77.0521 47.7077 76.8128 48.0234 76.5068 48.2871C76.2041 48.5475 75.8428 48.7493 75.4228 48.8926C75.0062 49.0326 74.5537 49.1025 74.0654 49.1025C73.8571 49.1025 73.6504 49.0895 73.4453 49.0635C73.2435 49.0374 73.0482 49.0016 72.8594 48.9561C72.6738 48.9105 72.498 48.8568 72.332 48.7949C72.1693 48.7298 72.0244 48.6598 71.8975 48.585V51.3535ZM71.8975 47.1885C72.0439 47.3057 72.1986 47.4049 72.3613 47.4863C72.5241 47.5677 72.6901 47.6344 72.8594 47.6865C73.0286 47.7386 73.1995 47.7777 73.3721 47.8037C73.5446 47.8265 73.7122 47.8379 73.875 47.8379C74.207 47.8379 74.5016 47.7939 74.7588 47.7061C75.0192 47.6149 75.2373 47.4912 75.4131 47.335C75.5921 47.1787 75.7288 46.9948 75.8232 46.7832C75.9176 46.5716 75.9648 46.3421 75.9648 46.0947C75.9648 45.8636 75.9176 45.6455 75.8232 45.4404C75.7321 45.2354 75.5986 45.0563 75.4228 44.9033C75.2503 44.7471 75.0404 44.625 74.793 44.5371C74.5488 44.446 74.2738 44.4004 73.9678 44.4004C73.7725 44.4004 73.5771 44.4199 73.3818 44.459C73.1865 44.4948 72.9977 44.5469 72.8154 44.6152C72.6364 44.6836 72.4671 44.7666 72.3076 44.8643C72.1514 44.9619 72.0146 45.071 71.8975 45.1914V47.1885Z" fill="white"/>
<path d="M78.5771 47.1836C78.5771 46.9069 78.6374 46.6546 78.7578 46.4268C78.8783 46.1989 79.0589 46.0036 79.2998 45.8408C79.5407 45.6748 79.8402 45.5479 80.1982 45.46C80.5596 45.3688 80.9795 45.3232 81.458 45.3232C81.8128 45.3232 82.1855 45.3493 82.5762 45.4014C82.97 45.4534 83.3753 45.5332 83.792 45.6406C83.7757 45.4583 83.7204 45.2907 83.626 45.1377C83.5316 44.9814 83.3997 44.848 83.2305 44.7373C83.0644 44.6234 82.8626 44.5355 82.625 44.4736C82.3906 44.4118 82.1237 44.3809 81.8242 44.3809C81.6615 44.3809 81.4824 44.3906 81.2871 44.4102C81.0918 44.4297 80.89 44.459 80.6816 44.498C80.4733 44.5371 80.2666 44.5859 80.0615 44.6445C79.8597 44.7031 79.6709 44.7731 79.4951 44.8545L79.0557 43.668C79.2738 43.5898 79.5065 43.5182 79.7539 43.4531C80.0045 43.388 80.2601 43.3327 80.5205 43.2871C80.7809 43.2383 81.0413 43.2008 81.3018 43.1748C81.5622 43.1488 81.8144 43.1357 82.0586 43.1357C83.1361 43.1357 83.9368 43.4108 84.4609 43.9609C84.985 44.5111 85.2471 45.3542 85.2471 46.4902V49H83.8018V48.458C83.652 48.5459 83.4876 48.6289 83.3086 48.707C83.1328 48.7852 82.9408 48.8535 82.7324 48.9121C82.5241 48.9707 82.2995 49.0163 82.0586 49.0488C81.821 49.0846 81.5687 49.1025 81.3018 49.1025C80.8525 49.1025 80.457 49.0537 80.1152 48.9561C79.7767 48.8584 79.4935 48.7233 79.2656 48.5508C79.0378 48.3783 78.8652 48.1764 78.748 47.9453C78.6341 47.7109 78.5771 47.457 78.5771 47.1836ZM80.1006 47.1348C80.1006 47.2292 80.125 47.3203 80.1738 47.4082C80.2226 47.4928 80.3008 47.5693 80.4082 47.6377C80.5156 47.7028 80.6523 47.7565 80.8184 47.7988C80.9876 47.8379 81.1911 47.8574 81.4287 47.8574C81.6826 47.8574 81.9284 47.8346 82.166 47.7891C82.4036 47.7435 82.625 47.6833 82.8301 47.6084C83.0351 47.5335 83.2207 47.4473 83.3867 47.3496C83.5527 47.252 83.6911 47.151 83.8018 47.0469V46.793C83.5804 46.7311 83.3607 46.679 83.1426 46.6367C82.9277 46.5944 82.721 46.5618 82.5225 46.5391C82.3271 46.513 82.1416 46.4951 81.9658 46.4854C81.7933 46.4756 81.6419 46.4707 81.5117 46.4707C81.2415 46.4707 81.0169 46.4886 80.8379 46.5244C80.6588 46.5602 80.514 46.6091 80.4033 46.6709C80.2926 46.7295 80.2145 46.7995 80.1689 46.8809C80.1234 46.9622 80.1006 47.0469 80.1006 47.1348Z" fill="white"/>
<path d="M86.8144 46.1338C86.8144 45.7106 86.8909 45.3167 87.0439 44.9521C87.2002 44.5843 87.4264 44.2669 87.7226 44C88.0221 43.7298 88.3867 43.5182 88.8164 43.3652C89.2493 43.2122 89.7425 43.1357 90.2959 43.1357C90.5368 43.1357 90.7793 43.1504 91.0234 43.1797C91.2676 43.209 91.5019 43.2513 91.7266 43.3066C91.9544 43.3587 92.1676 43.4222 92.3662 43.4971C92.5648 43.5687 92.7373 43.6484 92.8838 43.7363L92.2148 44.8252C91.8991 44.6787 91.5996 44.5713 91.3164 44.5029C91.0365 44.4346 90.7516 44.4004 90.4619 44.4004C90.1299 44.4004 89.832 44.4443 89.5684 44.5322C89.3047 44.6169 89.0801 44.7373 88.8945 44.8936C88.7122 45.0466 88.5723 45.2288 88.4746 45.4404C88.3802 45.6488 88.333 45.8766 88.333 46.124C88.333 46.3714 88.3835 46.6009 88.4844 46.8125C88.5885 47.0208 88.7334 47.2015 88.9189 47.3545C89.1077 47.5042 89.334 47.623 89.5976 47.7109C89.8646 47.7956 90.1608 47.8379 90.4863 47.8379C90.8444 47.8379 91.1813 47.7874 91.4971 47.6865C91.8161 47.5856 92.1123 47.4505 92.3857 47.2812L93.0547 48.3701C92.8822 48.4743 92.695 48.5719 92.4932 48.6631C92.2913 48.751 92.0749 48.8275 91.8437 48.8926C91.6159 48.9577 91.375 49.0081 91.1211 49.0439C90.8704 49.083 90.61 49.1025 90.3398 49.1025C89.7897 49.1025 89.2965 49.0277 88.8603 48.8779C88.4241 48.7282 88.0547 48.5215 87.7519 48.2578C87.4492 47.9909 87.2165 47.6768 87.0537 47.3154C86.8942 46.9541 86.8144 46.5602 86.8144 46.1338Z" fill="white"/>
<path d="M94.3389 46.0996C94.3389 45.709 94.4186 45.3363 94.5781 44.9814C94.7376 44.6234 94.9671 44.3076 95.2666 44.0342C95.5661 43.7607 95.9323 43.5426 96.3652 43.3799C96.8014 43.2171 97.2962 43.1357 97.8496 43.1357C98.3997 43.1357 98.8945 43.2188 99.334 43.3848C99.7767 43.5475 100.151 43.7721 100.457 44.0586C100.766 44.3451 101.002 44.682 101.165 45.0693C101.331 45.4567 101.414 45.8717 101.414 46.3145C101.414 46.3698 101.412 46.43 101.409 46.4951C101.409 46.557 101.406 46.6139 101.399 46.666H95.9502C96.012 46.8385 96.1113 46.9964 96.248 47.1396C96.388 47.2829 96.5622 47.4066 96.7705 47.5107C96.9788 47.6149 97.2197 47.6963 97.4932 47.7549C97.7666 47.8102 98.0693 47.8379 98.4014 47.8379C98.7334 47.8379 99.0638 47.8037 99.3926 47.7354C99.7213 47.6637 100.035 47.5742 100.335 47.4668L100.823 48.5703C100.634 48.6582 100.442 48.7363 100.247 48.8047C100.055 48.8698 99.8532 48.9251 99.6416 48.9707C99.4333 49.013 99.2135 49.0456 98.9824 49.0684C98.7545 49.0911 98.5137 49.1025 98.2598 49.1025C97.612 49.1025 97.0439 49.0244 96.5557 48.8682C96.0674 48.7119 95.6588 48.4987 95.3301 48.2285C95.0013 47.9583 94.7539 47.6409 94.5879 47.2764C94.4219 46.9118 94.3389 46.5195 94.3389 46.0996ZM99.8809 45.5381C99.8288 45.3786 99.7474 45.2305 99.6367 45.0938C99.5293 44.9538 99.3942 44.8333 99.2314 44.7324C99.0687 44.6283 98.8799 44.5469 98.665 44.4883C98.4502 44.4297 98.2142 44.4004 97.957 44.4004C97.6836 44.4004 97.4346 44.4313 97.21 44.4932C96.9853 44.555 96.7884 44.638 96.6191 44.7422C96.4499 44.8464 96.3083 44.9668 96.1943 45.1035C96.0836 45.2402 96.0023 45.3851 95.9502 45.5381H99.8809Z" fill="white"/>
</svg>
